<svg height="512pt" viewBox="-44 0 512 512.00116" width="512pt" xmlns="http://www.w3.org/2000/svg"><path d="m355.117188 512h-285.53125c-16.832032 0-30.476563-13.644531-30.476563-30.476562v-14.660157c0-50.710937 41.109375-91.820312 91.820313-91.820312h162.839843c50.710938 0 91.820313 41.109375 91.820313 91.820312v14.660157c0 16.832031-13.644532 30.476562-30.472656 30.476562zm0 0" fill="#61a5ce"/><path d="m254.980469 375.042969h-124.050781c-50.710938 0-91.820313 41.109375-91.820313 91.820312v14.664063c0 16.832031 13.644531 30.472656 30.476563 30.472656h99.433593c58.050781-35.289062 78.652344-97.632812 85.960938-136.957031zm0 0" fill="#4f8baa"/><path d="m284.863281 402.113281c0-32.496093-32.464843-58.839843-72.511719-58.839843-40.050781 0-72.515624 26.34375-72.515624 58.839843 0 32.496094 32.464843 58.839844 72.515624 58.839844 40.046876 0 72.511719-26.34375 72.511719-58.839844zm0 0" fill="#ffcfc2"/><path d="m212.351562 343.273438c-40.050781 0-72.515624 26.34375-72.515624 58.839843 0 32.496094 32.464843 58.839844 72.515624 58.839844 3.230469 0 6.398438-.167969 9.519532-.503906 25.238281-38.339844 33.328125-81.160157 35.914062-104.199219-12.433594-8.121094-28.230468-12.976562-45.433594-12.976562zm0 0" fill="#ffaea1"/><path d="m88.097656 276.925781c0-24.324219-19.71875-44.042969-44.046875-44.042969s-44.050781 19.71875-44.050781 44.042969 19.722656 44.042969 44.050781 44.042969 44.046875-19.71875 44.046875-44.042969zm0 0" fill="#ffaea1"/><path d="m424.699219 276.925781c0-24.324219-19.71875-44.042969-44.046875-44.042969s-44.050782 19.71875-44.050782 44.042969 19.722657 44.042969 44.050782 44.042969 44.046875-19.71875 44.046875-44.042969zm0 0" fill="#ffcfc2"/><path d="m228.347656 415.714844h-31.996094c-83.765624 0-152.300781-68.535156-152.300781-152.300782v-69.941406c0-92.558594 75.730469-168.289062 168.285157-168.289062h.027343c92.558594 0 168.289063 75.730468 168.289063 168.289062v69.941406c0 83.765626-68.539063 152.300782-152.304688 152.300782zm0 0" fill="#ffe2d9"/><path d="m124.632812 300.730469c-7.851562-41.558594 4.984376-84.089844 33.089844-115.699219 41.796875-47.007812 54.628906-159.847656 54.628906-159.847656-92.566406 0-168.300781 75.722656-168.300781 168.273437v69.96875c0 83.191407 67.632813 151.359375 150.628907 152.28125-44.289063-36.675781-63.171876-78.574219-70.046876-114.976562zm0 0" fill="#ffcfc2"/><path d="m212.351562 339.367188c-15.988281 0-28.949218-12.960938-28.949218-28.945313v-21.042969c0-4.363281 3.539062-7.902344 7.902344-7.902344h42.09375c4.363281 0 7.902343 3.535157 7.902343 7.902344v21.042969c-.003906 15.984375-12.960937 28.945313-28.949219 28.945313zm0 0" fill="#57565c"/><path d="m146.394531 310.421875c0-13.578125-13.824219-24.585937-30.875-24.585937-17.054687 0-30.878906 11.007812-30.878906 24.585937s13.824219 24.585937 30.878906 24.585937c17.050781 0 30.875-11.007812 30.875-24.585937zm0 0" fill="#ffa6bb"/><path d="m340.0625 310.421875c0-13.578125-13.824219-24.585937-30.878906-24.585937-17.054688 0-30.878906 11.007812-30.878906 24.585937s13.824218 24.585937 30.878906 24.585937c17.054687 0 30.878906-11.007812 30.878906-24.585937zm0 0" fill="#ffa6bb"/><path d="m295.441406 296.925781c-4.265625 0-7.726562-3.457031-7.726562-7.726562v-12.824219c0-4.265625 3.460937-7.722656 7.726562-7.722656 4.269532 0 7.726563 3.457031 7.726563 7.722656v12.824219c0 4.265625-3.457031 7.726562-7.726563 7.726562zm0 0" fill="#57565c"/><path d="m129.257812 296.925781c-4.265624 0-7.726562-3.457031-7.726562-7.726562v-12.824219c0-4.265625 3.460938-7.722656 7.726562-7.722656 4.269532 0 7.726563 3.457031 7.726563 7.722656v12.824219c0 4.265625-3.457031 7.726562-7.726563 7.726562zm0 0" fill="#57565c"/><path d="m332.757812 97.203125s17.945313-8.972656 30.914063-22.984375c7.441406-8.042969 20.765625-5.03125 24.207031 5.371094 7.980469 24.121094 12.417969 61.476562-16.390625 98.648437-1.402343-2.453125-47.570312-27.992187-47.570312-27.992187zm0 0" fill="#c1aa84"/><path d="m247.304688 72.648438s10.992187-35.496094 64.957031-48.097657c15.433593-3.605469 30.738281 6.4375 33.617187 22.023438 5.394532 29.195312 10.382813 78.839843-5.816406 127.246093-6.320312-1.964843-81.199219-6.875-81.199219-6.875zm0 0" fill="#d3bd94"/><path d="m129.257812 63.898438-20.8125-26.753907c-9.066406-11.652343-27.035156-10.582031-34.59375 2.101563-15.746093 26.414062-34.195312 73.398437-19.058593 134.574218-.265625-.058593 74.464843-4.917968 74.464843-4.917968zm0 0" fill="#c1aa84"/><path d="m207.980469 66.25c-.09375-1.042969-6.433594-25.320312-11.910157-46.144531-4.171874-15.871094-23.132812-22.519531-36.21875-12.617188-31.859374 24.101563-78.757812 76.410157-75.488281 174.152344l132.261719-16.5zm0 0" fill="#d3bd94"/><path d="m109.945312 187.171875s4.902344-153.683594 147.679688-186.664063c13.453125-3.109374 25.65625 8.539063 23.46875 22.171876-5.625 35.027343-6.238281 100.242187 42.828125 172.84375-.003906.488281-213.976563-8.351563-213.976563-8.351563zm0 0" fill="#e5cfa1"/><path d="m86.925781 195.542969s-10.113281 41.488281-31.308593 73.113281c-5.304688 7.917969-17.589844 5.070312-19.019532-4.351562-3.484375-23-4.984375-60.234376 10.277344-90.484376 5.632812 0 40.050781 21.722657 40.050781 21.722657zm0 0" fill="#d3bd94"/><path d="m337.777344 195.542969s10.113281 41.488281 31.304687 73.113281c5.304688 7.917969 17.59375 5.070312 19.019531-4.351562 3.488282-23 4.984376-60.234376-10.277343-90.484376-5.632813 0-40.046875 21.722657-40.046875 21.722657zm0 0" fill="#e5cfa1"/><path d="m364.488281 216.054688h-304.273437c-13.605469 0-24.632813-11.027344-24.632813-24.628907v-26.371093c0-13.601563 11.027344-24.632813 24.632813-24.632813h304.273437c13.601563 0 24.632813 11.03125 24.632813 24.632813v26.371093c0 13.601563-11.03125 24.628907-24.632813 24.628907zm0 0" fill="#7ac1dd"/><path d="m262.652344 226.585938h-100.601563c-13.378906 0-24.222656-10.84375-24.222656-24.21875v-48.253907c0-13.378906 10.84375-24.222656 24.222656-24.222656h100.601563c13.378906 0 24.222656 10.84375 24.222656 24.222656v48.253907c0 13.375-10.84375 24.21875-24.222656 24.21875zm0 0" fill="#c6c5ca"/></svg>